# xmcd
#
# Track frame offsets:
#	150
#	6510
#	16877
#	27711
#	36339
#	46656
#	56542
#	64497
#	72655
#	84414
#	95186
#	113626
#	121290
#	129457
#	138735
#	153954
#	163850
#	169074
#	177571
#	185739
#	197868
#	206366
#	214784
#	222953
#
# Disc length: 3044 seconds
#
# Revision: 0
# Processed by: cddbd v1.5.2PL0 Copyright (c) Steve Scherf et al.
# Submitted via: audiograbber 1.83.01
#
DISCID=710be218
DTITLE=Various Artist - The Complete Twelve String Story
DYEAR=2008
DGENRE=Blues
TTITLE0=Dick Rosmini - Finger Buster Blues
TTITLE1=Fred Gerlach - Meadowlands
TTITLE2=Mason Williams - Hoot Blues
TTITLE3=Bob Gibson - Guitar Rag
TTITLE4=Tommy Tedesco - Guitar Ramblin'
TTITLE5=Roger McGuinn - When The Saints Go Marching In
TTITLE6=Howard Roberts - Color Him Folky
TTITLE7=Joe Maphis - Maggie
TTITLE8=Frank Hamilton - Good Old Blues
TTITLE9=Glen Campbell - Redwing
TTITLE10=Billy Strange - Blues Wail
TTITLE11=Jim Helms - Careless Love
TTITLE12=Dick Rosmini - A Closer Walk
TTITLE13=Tommy Tedesco - Take This Hammer
TTITLE14=Frank Hamilton - Alabama Bound
TTITLE15=Joe Maphis - Six By Twelve
TTITLE16=Mason Williams - Honey Miss Me When I'm Gone
TTITLE17=Jim Helms - Midnight Train
TTITLE18=Howard Roberts - Cottonfields
TTITLE19=Roger McGuinn - Ramblin' On
TTITLE20=Glen Campbell - Bull Durham
TTITLE21=Billy Strange - Wildwood Flower
TTITLE22=Fred Gerlach - Twelfth Night
TTITLE23=Jim Helms - Loco Twelve String
EXTD=
EXTT0=
EXTT1=
EXTT2=
EXTT3=
EXTT4=
EXTT5=
EXTT6=
EXTT7=
EXTT8=
EXTT9=
EXTT10=
EXTT11=
EXTT12=
EXTT13=
EXTT14=
EXTT15=
EXTT16=
EXTT17=
EXTT18=
EXTT19=
EXTT20=
EXTT21=
EXTT22=
EXTT23=
PLAYORDER=
